<svg width="24" height="24" viewBox="0 0 24 24" fill="none" xmlns="http://www.w3.org/2000/svg">
<rect x="21" y="5" width="14" height="18" rx="1" transform="rotate(90 21 5)" fill="url(#paint0_linear_8260_14620)"/>
<path d="M13 16C13 16.5523 12.5523 17 12 17C11.4477 17 11 16.5523 11 16V15C11 14.4477 11.4477 14 12 14C12.5523 14 13 14.4477 13 15V16Z" fill="url(#paint1_linear_8260_14620)"/>
<path d="M16 16C16 16.5523 15.5523 17 15 17C14.4477 17 14 16.5523 14 16V13C14 12.4477 14.4477 12 15 12C15.5523 12 16 12.4477 16 13V16Z" fill="url(#paint2_linear_8260_14620)"/>
<path d="M19 16C19 16.5523 18.5523 17 18 17C17.4477 17 17 16.5523 17 16L17 11C17 10.4477 17.4477 10 18 10C18.5523 10 19 10.4477 19 11L19 16Z" fill="url(#paint3_linear_8260_14620)"/>
<path d="M8 7V10H11C11 11.6569 9.65685 13 8 13C6.34315 13 5 11.6569 5 10C5 8.34315 6.34315 7 8 7Z" fill="url(#paint4_linear_8260_14620)"/>
<defs>
<linearGradient id="paint0_linear_8260_14620" x1="20.3" y1="21" x2="37.4492" y2="14.9978" gradientUnits="userSpaceOnUse">
<stop stop-color="white"/>
<stop offset="1" stop-color="#E3ECFB"/>
</linearGradient>
<linearGradient id="paint1_linear_8260_14620" x1="8" y1="7" x2="21.8235" y2="13.0721" gradientUnits="userSpaceOnUse">
<stop stop-color="#60A5FA"/>
<stop offset="1" stop-color="#4345E0"/>
</linearGradient>
<linearGradient id="paint2_linear_8260_14620" x1="8" y1="7" x2="21.8235" y2="13.0721" gradientUnits="userSpaceOnUse">
<stop stop-color="#60A5FA"/>
<stop offset="1" stop-color="#4345E0"/>
</linearGradient>
<linearGradient id="paint3_linear_8260_14620" x1="8" y1="7" x2="21.8235" y2="13.0721" gradientUnits="userSpaceOnUse">
<stop stop-color="#60A5FA"/>
<stop offset="1" stop-color="#4345E0"/>
</linearGradient>
<linearGradient id="paint4_linear_8260_14620" x1="8" y1="7" x2="21.8235" y2="13.0721" gradientUnits="userSpaceOnUse">
<stop stop-color="#60A5FA"/>
<stop offset="1" stop-color="#4345E0"/>
</linearGradient>
</defs>
</svg>
