<svg width="24" height="24" viewBox="0 0 24 24" fill="none" xmlns="http://www.w3.org/2000/svg">
<path d="M3 12.9453C3 12.393 3.44772 11.9453 4 11.9453H18C18.5523 11.9453 19 12.393 19 12.9453V20.9453C19 21.4976 18.5523 21.9453 18 21.9453H4C3.44772 21.9453 3 21.4976 3 20.9453V12.9453Z" fill="url(#paint0_linear_8260_14570)" fill-opacity="0.6"/>
<path d="M14 11.9453C14 11.393 14.4477 10.9453 15 10.9453C15.5523 10.9453 16 11.393 16 11.9453H14Z" fill="url(#paint1_linear_8260_14570)" fill-opacity="0.6"/>
<circle cx="7" cy="16.9453" r="2" fill="white"/>
<path fill-rule="evenodd" clip-rule="evenodd" d="M15 8.5C14.3629 8.5 13.7815 8.73799 13.3396 9.13092C13.1332 9.31442 12.8224 9.36334 12.6018 9.19724C12.3812 9.03114 12.3348 8.71458 12.5305 8.51976C13.163 7.89009 14.036 7.5 15 7.5C15.964 7.5 16.8369 7.89009 17.4694 8.51976C17.6651 8.71458 17.6187 9.03114 17.3981 9.19724C17.1775 9.36334 16.8667 9.31442 16.6604 9.13092C16.2185 8.73799 15.6371 8.5 15 8.5Z" fill="#50A5FF" fill-opacity="0.2"/>
<path opacity="0.9" fill-rule="evenodd" clip-rule="evenodd" d="M14.9999 5.5C13.3789 5.5 11.9216 6.20089 10.9144 7.31771C10.7295 7.52277 10.4177 7.56933 10.1968 7.40365C9.97584 7.23798 9.92968 6.92311 10.1118 6.71552C11.3025 5.35813 13.0511 4.5 14.9999 4.5C16.9488 4.5 18.6974 5.35813 19.8881 6.71552C20.0702 6.92311 20.024 7.23798 19.8031 7.40365C19.5822 7.56933 19.2704 7.52277 19.0855 7.31771C18.0783 6.20089 16.621 5.5 14.9999 5.5Z" fill="#50A5FF" fill-opacity="0.4"/>
<path fill-rule="evenodd" clip-rule="evenodd" d="M15 2.5C12.3991 2.5 10.071 3.66773 8.51116 5.50926C8.33268 5.71997 8.02034 5.76559 7.79955 5.59973C7.57876 5.43388 7.53325 5.11949 7.71044 4.90769C9.45242 2.82558 12.0715 1.5 15 1.5C17.9285 1.5 20.5476 2.82558 22.2896 4.90769C22.4668 5.11949 22.4213 5.43388 22.2005 5.59973C21.9797 5.76559 21.6673 5.71997 21.4889 5.50926C19.929 3.66773 17.6009 2.5 15 2.5Z" fill="#50A5FF" fill-opacity="0.6"/>
<rect x="12" y="14.9453" width="2" height="4" rx="1" fill="white"/>
<rect x="15" y="14.9453" width="2" height="4" rx="1" fill="white"/>
<defs>
<linearGradient id="paint0_linear_8260_14570" x1="11" y1="10.9453" x2="11" y2="21.9453" gradientUnits="userSpaceOnUse">
<stop stop-color="#50A5FF" stop-opacity="0.5"/>
<stop offset="1" stop-color="#50A5FF"/>
</linearGradient>
<linearGradient id="paint1_linear_8260_14570" x1="11" y1="10.9453" x2="11" y2="21.9453" gradientUnits="userSpaceOnUse">
<stop stop-color="#50A5FF" stop-opacity="0.5"/>
<stop offset="1" stop-color="#50A5FF"/>
</linearGradient>
</defs>
</svg>
