<svg width="24" height="24" viewBox="0 0 24 24" fill="none" xmlns="http://www.w3.org/2000/svg">
<rect x="22" y="2" width="20" height="18" rx="1" transform="rotate(90 22 2)" fill="url(#paint0_linear_8261_14811)"/>
<path d="M9 8C9.55228 8 10 8.44772 10 9C10 9.55229 9.55228 10 9 10L3 10C2.44772 10 2 9.55228 2 9C2 8.44772 2.44772 8 3 8L9 8Z" fill="url(#paint1_linear_8261_14811)"/>
<path d="M14 8C14.5523 8 15 8.44772 15 9C15 9.55229 14.5523 10 14 10H13C12.4477 10 12 9.55228 12 9C12 8.44772 12.4477 8 13 8L14 8Z" fill="url(#paint2_linear_8261_14811)"/>
<path d="M7 12C7.55228 12 8 12.4477 8 13C8 13.5523 7.55228 14 7 14H6C5.44772 14 5 13.5523 5 13C5 12.4477 5.44772 12 6 12L7 12Z" fill="url(#paint3_linear_8261_14811)"/>
<path d="M12 12C12.5523 12 13 12.4477 13 13C13 13.5523 12.5523 14 12 14H11C10.4477 14 10 13.5523 10 13C10 12.4477 10.4477 12 11 12L12 12Z" fill="url(#paint4_linear_8261_14811)"/>
<path d="M19 12C19.5523 12 20 12.4477 20 13C20 13.5523 19.5523 14 19 14H16C15.4477 14 15 13.5523 15 13C15 12.4477 15.4477 12 16 12L19 12Z" fill="url(#paint5_linear_8261_14811)"/>
<path d="M6 16C6.55228 16 7 16.4477 7 17C7 17.5523 6.55228 18 6 18L3 18C2.44772 18 2 17.5523 2 17C2 16.4477 2.44772 16 3 16H6Z" fill="url(#paint6_linear_8261_14811)"/>
<path d="M11 16C11.5523 16 12 16.4477 12 17C12 17.5523 11.5523 18 11 18L10 18C9.44772 18 9 17.5523 9 17C9 16.4477 9.44772 16 10 16H11Z" fill="url(#paint7_linear_8261_14811)"/>
<path d="M16 16C16.5523 16 17 16.4477 17 17C17 17.5523 16.5523 18 16 18L15 18C14.4477 18 14 17.5523 14 17C14 16.4477 14.4477 16 15 16H16Z" fill="url(#paint8_linear_8261_14811)"/>
<defs>
<linearGradient id="paint0_linear_8261_14811" x1="21" y1="18" x2="43" y2="7" gradientUnits="userSpaceOnUse">
<stop stop-color="white"/>
<stop offset="1" stop-color="#E3ECFB"/>
</linearGradient>
<linearGradient id="paint1_linear_8261_14811" x1="7" y1="8" x2="16.5" y2="19.5" gradientUnits="userSpaceOnUse">
<stop stop-color="#60A5FA"/>
<stop offset="1" stop-color="#4345E0"/>
</linearGradient>
<linearGradient id="paint2_linear_8261_14811" x1="7" y1="8" x2="16.5" y2="19.5" gradientUnits="userSpaceOnUse">
<stop stop-color="#60A5FA"/>
<stop offset="1" stop-color="#4345E0"/>
</linearGradient>
<linearGradient id="paint3_linear_8261_14811" x1="7" y1="8" x2="16.5" y2="19.5" gradientUnits="userSpaceOnUse">
<stop stop-color="#60A5FA"/>
<stop offset="1" stop-color="#4345E0"/>
</linearGradient>
<linearGradient id="paint4_linear_8261_14811" x1="7" y1="8" x2="16.5" y2="19.5" gradientUnits="userSpaceOnUse">
<stop stop-color="#60A5FA"/>
<stop offset="1" stop-color="#4345E0"/>
</linearGradient>
<linearGradient id="paint5_linear_8261_14811" x1="7" y1="8" x2="16.5" y2="19.5" gradientUnits="userSpaceOnUse">
<stop stop-color="#60A5FA"/>
<stop offset="1" stop-color="#4345E0"/>
</linearGradient>
<linearGradient id="paint6_linear_8261_14811" x1="7" y1="8" x2="16.5" y2="19.5" gradientUnits="userSpaceOnUse">
<stop stop-color="#60A5FA"/>
<stop offset="1" stop-color="#4345E0"/>
</linearGradient>
<linearGradient id="paint7_linear_8261_14811" x1="7" y1="8" x2="16.5" y2="19.5" gradientUnits="userSpaceOnUse">
<stop stop-color="#60A5FA"/>
<stop offset="1" stop-color="#4345E0"/>
</linearGradient>
<linearGradient id="paint8_linear_8261_14811" x1="7" y1="8" x2="16.5" y2="19.5" gradientUnits="userSpaceOnUse">
<stop stop-color="#60A5FA"/>
<stop offset="1" stop-color="#4345E0"/>
</linearGradient>
</defs>
</svg>
