<svg width="24" height="24" viewBox="0 0 24 24" fill="none" xmlns="http://www.w3.org/2000/svg">
<path fill-rule="evenodd" clip-rule="evenodd" d="M13.4142 13.4142L6.41416 20.4142C5.63311 21.1953 4.36678 21.1953 3.58573 20.4142C2.80468 19.6332 2.80468 18.3668 3.58573 17.5858L9.17152 12L3.58573 6.41421C2.80468 5.63316 2.80468 4.36683 3.58573 3.58579C4.36678 2.80474 5.63311 2.80474 6.41416 3.58579L14.8284 12L13.4142 13.4142Z" fill="url(#paint0_linear_8261_14668)" fill-opacity="0.6"/>
<path d="M15.48 10.96C15.7451 10.96 15.96 10.7451 15.96 10.48C15.96 10.2149 15.7451 10 15.48 10C15.2149 10 15 10.2149 15 10.48C15 10.7451 15.2149 10.96 15.48 10.96Z" fill="#DBEAFE"/>
<path d="M16.48 9.96C16.7451 9.96 16.96 9.7451 16.96 9.48C16.96 9.2149 16.7451 9 16.48 9C16.2149 9 16 9.2149 16 9.48C16 9.7451 16.2149 9.96 16.48 9.96Z" fill="#DBEAFE"/>
<path d="M17.48 8.96C17.7451 8.96 17.96 8.7451 17.96 8.48C17.96 8.2149 17.7451 8 17.48 8C17.2149 8 17 8.2149 17 8.48C17 8.7451 17.2149 8.96 17.48 8.96Z" fill="#DBEAFE"/>
<path d="M18.48 7.96C18.7451 7.96 18.96 7.7451 18.96 7.48C18.96 7.2149 18.7451 7 18.48 7C18.2149 7 18 7.2149 18 7.48C18 7.7451 18.2149 7.96 18.48 7.96Z" fill="#DBEAFE"/>
<path d="M19.48 6.96C19.7451 6.96 19.96 6.7451 19.96 6.48C19.96 6.2149 19.7451 6 19.48 6C19.2149 6 19 6.2149 19 6.48C19 6.7451 19.2149 6.96 19.48 6.96Z" fill="#DBEAFE"/>
<path d="M20.48 5.96C20.7451 5.96 20.96 5.7451 20.96 5.48C20.96 5.2149 20.7451 5 20.48 5C20.2149 5 20 5.2149 20 5.48C20 5.7451 20.2149 5.96 20.48 5.96Z" fill="#DBEAFE"/>
<path d="M14.48 9.96C14.7451 9.96 14.96 9.7451 14.96 9.48C14.96 9.2149 14.7451 9 14.48 9C14.2149 9 14 9.2149 14 9.48C14 9.7451 14.2149 9.96 14.48 9.96Z" fill="#DBEAFE"/>
<path d="M15.48 8.96C15.7451 8.96 15.96 8.7451 15.96 8.48C15.96 8.2149 15.7451 8 15.48 8C15.2149 8 15 8.2149 15 8.48C15 8.7451 15.2149 8.96 15.48 8.96Z" fill="#DBEAFE"/>
<path d="M16.48 7.96C16.7451 7.96 16.96 7.7451 16.96 7.48C16.96 7.2149 16.7451 7 16.48 7C16.2149 7 16 7.2149 16 7.48C16 7.7451 16.2149 7.96 16.48 7.96Z" fill="#DBEAFE"/>
<path d="M17.48 6.96C17.7451 6.96 17.96 6.7451 17.96 6.48C17.96 6.2149 17.7451 6 17.48 6C17.2149 6 17 6.2149 17 6.48C17 6.7451 17.2149 6.96 17.48 6.96Z" fill="#DBEAFE"/>
<path d="M18.48 5.96C18.7451 5.96 18.96 5.7451 18.96 5.48C18.96 5.2149 18.7451 5 18.48 5C18.2149 5 18 5.2149 18 5.48C18 5.7451 18.2149 5.96 18.48 5.96Z" fill="#DBEAFE"/>
<path d="M19.48 4.96C19.7451 4.96 19.96 4.7451 19.96 4.48C19.96 4.2149 19.7451 4 19.48 4C19.2149 4 19 4.2149 19 4.48C19 4.7451 19.2149 4.96 19.48 4.96Z" fill="#DBEAFE"/>
<path d="M20.48 3.96C20.7451 3.96 20.96 3.7451 20.96 3.48C20.96 3.2149 20.7451 3 20.48 3C20.2149 3 20 3.2149 20 3.48C20 3.7451 20.2149 3.96 20.48 3.96Z" fill="#DBEAFE"/>
<path d="M13.48 8.96C13.7451 8.96 13.96 8.7451 13.96 8.48C13.96 8.2149 13.7451 8 13.48 8C13.2149 8 13 8.2149 13 8.48C13 8.7451 13.2149 8.96 13.48 8.96Z" fill="#DBEAFE"/>
<path d="M14.48 7.96C14.7451 7.96 14.96 7.7451 14.96 7.48C14.96 7.2149 14.7451 7 14.48 7C14.2149 7 14 7.2149 14 7.48C14 7.7451 14.2149 7.96 14.48 7.96Z" fill="#DBEAFE"/>
<path d="M15.48 6.96C15.7451 6.96 15.96 6.7451 15.96 6.48C15.96 6.2149 15.7451 6 15.48 6C15.2149 6 15 6.2149 15 6.48C15 6.7451 15.2149 6.96 15.48 6.96Z" fill="#DBEAFE"/>
<path d="M16.48 5.96C16.7451 5.96 16.96 5.7451 16.96 5.48C16.96 5.2149 16.7451 5 16.48 5C16.2149 5 16 5.2149 16 5.48C16 5.7451 16.2149 5.96 16.48 5.96Z" fill="#DBEAFE"/>
<path d="M17.48 4.96C17.7451 4.96 17.96 4.7451 17.96 4.48C17.96 4.2149 17.7451 4 17.48 4C17.2149 4 17 4.2149 17 4.48C17 4.7451 17.2149 4.96 17.48 4.96Z" fill="#DBEAFE"/>
<path d="M18.48 3.96C18.7451 3.96 18.96 3.7451 18.96 3.48C18.96 3.2149 18.7451 3 18.48 3C18.2149 3 18 3.2149 18 3.48C18 3.7451 18.2149 3.96 18.48 3.96Z" fill="#DBEAFE"/>
<path d="M13 15.48C13 15.7451 13.2149 15.96 13.48 15.96C13.7451 15.96 13.96 15.7451 13.96 15.48C13.96 15.2149 13.7451 15 13.48 15C13.2149 15 13 15.2149 13 15.48Z" fill="#DBEAFE"/>
<path d="M14 16.48C14 16.7451 14.2149 16.96 14.48 16.96C14.7451 16.96 14.96 16.7451 14.96 16.48C14.96 16.2149 14.7451 16 14.48 16C14.2149 16 14 16.2149 14 16.48Z" fill="#DBEAFE"/>
<path d="M15 17.48C15 17.7451 15.2149 17.96 15.48 17.96C15.7451 17.96 15.96 17.7451 15.96 17.48C15.96 17.2149 15.7451 17 15.48 17C15.2149 17 15 17.2149 15 17.48Z" fill="#DBEAFE"/>
<path d="M16 18.48C16 18.7451 16.2149 18.96 16.48 18.96C16.7451 18.96 16.96 18.7451 16.96 18.48C16.96 18.2149 16.7451 18 16.48 18C16.2149 18 16 18.2149 16 18.48Z" fill="#DBEAFE"/>
<path d="M17 19.48C17 19.7451 17.2149 19.96 17.48 19.96C17.7451 19.96 17.96 19.7451 17.96 19.48C17.96 19.2149 17.7451 19 17.48 19C17.2149 19 17 19.2149 17 19.48Z" fill="#DBEAFE"/>
<path d="M18 20.48C18 20.7451 18.2149 20.96 18.48 20.96C18.7451 20.96 18.96 20.7451 18.96 20.48C18.96 20.2149 18.7451 20 18.48 20C18.2149 20 18 20.2149 18 20.48Z" fill="#DBEAFE"/>
<path d="M14 14.48C14 14.7451 14.2149 14.96 14.48 14.96C14.7451 14.96 14.96 14.7451 14.96 14.48C14.96 14.2149 14.7451 14 14.48 14C14.2149 14 14 14.2149 14 14.48Z" fill="#DBEAFE"/>
<path d="M15 15.48C15 15.7451 15.2149 15.96 15.48 15.96C15.7451 15.96 15.96 15.7451 15.96 15.48C15.96 15.2149 15.7451 15 15.48 15C15.2149 15 15 15.2149 15 15.48Z" fill="#DBEAFE"/>
<path d="M16 16.48C16 16.7451 16.2149 16.96 16.48 16.96C16.7451 16.96 16.96 16.7451 16.96 16.48C16.96 16.2149 16.7451 16 16.48 16C16.2149 16 16 16.2149 16 16.48Z" fill="#DBEAFE"/>
<path d="M17 17.48C17 17.7451 17.2149 17.96 17.48 17.96C17.7451 17.96 17.96 17.7451 17.96 17.48C17.96 17.2149 17.7451 17 17.48 17C17.2149 17 17 17.2149 17 17.48Z" fill="#DBEAFE"/>
<path d="M18 18.48C18 18.7451 18.2149 18.96 18.48 18.96C18.7451 18.96 18.96 18.7451 18.96 18.48C18.96 18.2149 18.7451 18 18.48 18C18.2149 18 18 18.2149 18 18.48Z" fill="#DBEAFE"/>
<path d="M19 19.48C19 19.7451 19.2149 19.96 19.48 19.96C19.7451 19.96 19.96 19.7451 19.96 19.48C19.96 19.2149 19.7451 19 19.48 19C19.2149 19 19 19.2149 19 19.48Z" fill="#DBEAFE"/>
<path d="M20 20.48C20 20.7451 20.2149 20.96 20.48 20.96C20.7451 20.96 20.96 20.7451 20.96 20.48C20.96 20.2149 20.7451 20 20.48 20C20.2149 20 20 20.2149 20 20.48Z" fill="#DBEAFE"/>
<path d="M15 13.48C15 13.7451 15.2149 13.96 15.48 13.96C15.7451 13.96 15.96 13.7451 15.96 13.48C15.96 13.2149 15.7451 13 15.48 13C15.2149 13 15 13.2149 15 13.48Z" fill="#DBEAFE"/>
<path d="M16 14.48C16 14.7451 16.2149 14.96 16.48 14.96C16.7451 14.96 16.96 14.7451 16.96 14.48C16.96 14.2149 16.7451 14 16.48 14C16.2149 14 16 14.2149 16 14.48Z" fill="#DBEAFE"/>
<path d="M17 15.48C17 15.7451 17.2149 15.96 17.48 15.96C17.7451 15.96 17.96 15.7451 17.96 15.48C17.96 15.2149 17.7451 15 17.48 15C17.2149 15 17 15.2149 17 15.48Z" fill="#DBEAFE"/>
<path d="M18 16.48C18 16.7451 18.2149 16.96 18.48 16.96C18.7451 16.96 18.96 16.7451 18.96 16.48C18.96 16.2149 18.7451 16 18.48 16C18.2149 16 18 16.2149 18 16.48Z" fill="#DBEAFE"/>
<path d="M19 17.48C19 17.7451 19.2149 17.96 19.48 17.96C19.7451 17.96 19.96 17.7451 19.96 17.48C19.96 17.2149 19.7451 17 19.48 17C19.2149 17 19 17.2149 19 17.48Z" fill="#DBEAFE"/>
<path d="M20 18.48C20 18.7451 20.2149 18.96 20.48 18.96C20.7451 18.96 20.96 18.7451 20.96 18.48C20.96 18.2149 20.7451 18 20.48 18C20.2149 18 20 18.2149 20 18.48Z" fill="#DBEAFE"/>
<defs>
<linearGradient id="paint0_linear_8261_14668" x1="4.5" y1="5.5" x2="6.5" y2="21.5" gradientUnits="userSpaceOnUse">
<stop stop-color="#50A5FF" stop-opacity="0.5"/>
<stop offset="1" stop-color="#50A5FF"/>
</linearGradient>
</defs>
</svg>
